<svg width="144" height="46" viewBox="0 0 144 46" fill="none" xmlns="http://www.w3.org/2000/svg">
<g filter="url(#filter0_b_418_2204)">
<rect x="0.5" width="143" height="46" rx="23" fill="#4EC95C" fill-opacity="0.1"/>
<path fill-rule="evenodd" clip-rule="evenodd" d="M28 34.25C33.799 34.25 38.5 29.549 38.5 23.75C38.5 17.951 33.799 13.25 28 13.25C22.201 13.25 17.5 17.951 17.5 23.75C17.5 25.6332 17.9957 27.4005 18.8639 28.9287L17.5 34.25L22.9861 32.9778C24.476 33.7891 26.1842 34.25 28 34.25ZM28 32.6346C32.9068 32.6346 36.8846 28.6568 36.8846 23.75C36.8846 18.8432 32.9068 14.8654 28 14.8654C23.0932 14.8654 19.1154 18.8432 19.1154 23.75C19.1154 25.6445 19.7084 27.4006 20.7189 28.8427L19.9231 31.8269L22.9599 31.0677C24.392 32.0559 26.1284 32.6346 28 32.6346Z" fill="#BFC8D0"/>
<path d="M37 23C37 27.9706 32.9706 32 28 32C26.1041 32 24.3452 31.4138 22.8945 30.4127L19.8182 31.1818L20.6243 28.1588C19.6007 26.698 19 24.9192 19 23C19 18.0294 23.0294 14 28 14C32.9706 14 37 18.0294 37 23Z" fill="url(#paint0_linear_418_2204)"/>
<path fill-rule="evenodd" clip-rule="evenodd" d="M28 33.5C33.799 33.5 38.5 28.799 38.5 23C38.5 17.201 33.799 12.5 28 12.5C22.201 12.5 17.5 17.201 17.5 23C17.5 24.8832 17.9957 26.6505 18.8639 28.1787L17.5 33.5L22.9861 32.2278C24.476 33.0391 26.1842 33.5 28 33.5ZM28 31.8846C32.9068 31.8846 36.8846 27.9068 36.8846 23C36.8846 18.0932 32.9068 14.1154 28 14.1154C23.0932 14.1154 19.1154 18.0932 19.1154 23C19.1154 24.8945 19.7084 26.6506 20.7189 28.0927L19.9231 31.0769L22.9599 30.3177C24.392 31.3059 26.1284 31.8846 28 31.8846Z" fill="white"/>
<path d="M25.375 18.125C25.1254 17.6236 24.7424 17.668 24.3555 17.668C23.6641 17.668 22.5859 18.4962 22.5859 20.0376C22.5859 21.3008 23.1426 22.6836 25.0183 24.7522C26.8285 26.7485 29.207 27.7812 31.1817 27.746C33.1563 27.7109 33.5625 26.0117 33.5625 25.4378C33.5625 25.1835 33.4047 25.0566 33.296 25.0221C32.6231 24.6992 31.382 24.0974 31.0996 23.9844C30.8172 23.8713 30.6698 24.0243 30.5781 24.1074C30.3221 24.3515 29.8144 25.0707 29.6406 25.2324C29.4668 25.3942 29.2077 25.3123 29.0999 25.2512C28.7031 25.092 27.6272 24.6134 26.7696 23.7821C25.709 22.7539 25.6467 22.4002 25.4469 22.0853C25.2871 21.8334 25.4044 21.6789 25.4629 21.6113C25.6914 21.3477 26.007 20.9406 26.1485 20.7383C26.29 20.536 26.1776 20.2289 26.1102 20.0376C25.8203 19.2148 25.5747 18.5262 25.375 18.125Z" fill="white"/>
<path d="M55.4716 20.5625C55.4186 20.0663 55.1951 19.6799 54.8011 19.4034C54.411 19.1269 53.9034 18.9886 53.2784 18.9886C52.839 18.9886 52.4621 19.0549 52.1477 19.1875C51.8333 19.3201 51.5928 19.5 51.4261 19.7273C51.2595 19.9545 51.1742 20.214 51.1705 20.5057C51.1705 20.7481 51.2254 20.9583 51.3352 21.1364C51.4489 21.3144 51.6023 21.4659 51.7955 21.5909C51.9886 21.7121 52.2027 21.8144 52.4375 21.8977C52.6723 21.9811 52.9091 22.0511 53.1477 22.108L54.2386 22.3807C54.678 22.483 55.1004 22.6212 55.5057 22.7955C55.9148 22.9697 56.2803 23.1894 56.6023 23.4545C56.928 23.7197 57.1856 24.0398 57.375 24.4148C57.5644 24.7898 57.6591 25.2292 57.6591 25.733C57.6591 26.4148 57.4848 27.0152 57.1364 27.5341C56.7879 28.0492 56.2841 28.4527 55.625 28.7443C54.9697 29.0322 54.1761 29.1761 53.2443 29.1761C52.339 29.1761 51.553 29.036 50.8864 28.7557C50.2235 28.4754 49.7045 28.0663 49.3295 27.5284C48.9583 26.9905 48.7576 26.3352 48.7273 25.5625H50.8011C50.8314 25.9678 50.9564 26.3049 51.1761 26.5739C51.3958 26.8428 51.6818 27.0436 52.0341 27.1761C52.3902 27.3087 52.7879 27.375 53.2273 27.375C53.6856 27.375 54.0871 27.3068 54.4318 27.1705C54.7803 27.0303 55.053 26.8371 55.25 26.5909C55.447 26.3409 55.5473 26.0492 55.5511 25.7159C55.5473 25.4129 55.4583 25.1629 55.2841 24.9659C55.1098 24.7652 54.8655 24.5985 54.5511 24.4659C54.2405 24.3295 53.8769 24.2083 53.4602 24.1023L52.1364 23.7614C51.178 23.5152 50.4205 23.142 49.8636 22.642C49.3106 22.1383 49.0341 21.4697 49.0341 20.6364C49.0341 19.9508 49.2197 19.3504 49.5909 18.8352C49.9659 18.3201 50.4754 17.9205 51.1193 17.6364C51.7633 17.3485 52.4924 17.2045 53.3068 17.2045C54.1326 17.2045 54.8561 17.3485 55.4773 17.6364C56.1023 17.9205 56.5928 18.3163 56.9489 18.8239C57.3049 19.3277 57.4886 19.9072 57.5 20.5625H55.4716ZM63.8054 20.2727V21.8636H58.7884V20.2727H63.8054ZM60.027 18.1818H62.0838V26.375C62.0838 26.6515 62.1255 26.8636 62.2088 27.0114C62.2959 27.1553 62.4096 27.2538 62.5497 27.3068C62.6899 27.3598 62.8452 27.3864 63.0156 27.3864C63.1444 27.3864 63.2618 27.3769 63.3679 27.358C63.4777 27.339 63.5611 27.322 63.6179 27.3068L63.9645 28.9148C63.8546 28.9527 63.6974 28.9943 63.4929 29.0398C63.2921 29.0852 63.0459 29.1117 62.7543 29.1193C62.2391 29.1345 61.7751 29.0568 61.3622 28.8864C60.9493 28.7121 60.6217 28.4432 60.3793 28.0795C60.1406 27.7159 60.0232 27.2614 60.027 26.7159V18.1818ZM68.0369 29.1761C67.4839 29.1761 66.9858 29.0777 66.5426 28.8807C66.1032 28.6799 65.7547 28.3845 65.4972 27.9943C65.2434 27.6042 65.1165 27.1231 65.1165 26.5511C65.1165 26.0587 65.2074 25.6515 65.3892 25.3295C65.571 25.0076 65.8191 24.75 66.1335 24.5568C66.4479 24.3636 66.8021 24.2178 67.196 24.1193C67.5938 24.017 68.0047 23.9432 68.429 23.8977C68.9403 23.8447 69.3551 23.7973 69.6733 23.7557C69.9915 23.7102 70.2225 23.642 70.3665 23.5511C70.5142 23.4564 70.5881 23.3106 70.5881 23.1136V23.0795C70.5881 22.6515 70.4612 22.3201 70.2074 22.0852C69.9536 21.8504 69.5881 21.733 69.1108 21.733C68.607 21.733 68.2074 21.8428 67.9119 22.0625C67.6203 22.2822 67.4233 22.5417 67.321 22.8409L65.4006 22.5682C65.5521 22.0379 65.8021 21.5947 66.1506 21.2386C66.4991 20.8788 66.9252 20.6098 67.429 20.4318C67.9328 20.25 68.4896 20.1591 69.0994 20.1591C69.5199 20.1591 69.9384 20.2083 70.3551 20.3068C70.7718 20.4053 71.1525 20.5682 71.4972 20.7955C71.8419 21.0189 72.1184 21.3239 72.3267 21.7102C72.5388 22.0966 72.6449 22.5795 72.6449 23.1591V29H70.6676V27.8011H70.5994C70.4744 28.0436 70.2983 28.2708 70.071 28.483C69.8475 28.6913 69.5653 28.8598 69.2244 28.9886C68.8873 29.1136 68.4915 29.1761 68.0369 29.1761ZM68.571 27.6648C68.9839 27.6648 69.3419 27.5833 69.6449 27.4205C69.9479 27.2538 70.1809 27.0341 70.3438 26.7614C70.5104 26.4886 70.5938 26.1913 70.5938 25.8693V24.8409C70.5294 24.8939 70.4195 24.9432 70.2642 24.9886C70.1127 25.0341 69.9422 25.0739 69.7528 25.108C69.5634 25.142 69.3759 25.1723 69.1903 25.1989C69.0047 25.2254 68.8438 25.2481 68.7074 25.267C68.4006 25.3087 68.1259 25.3769 67.8835 25.4716C67.6411 25.5663 67.4498 25.6989 67.3097 25.8693C67.1695 26.036 67.0994 26.2519 67.0994 26.517C67.0994 26.8958 67.2377 27.1818 67.5142 27.375C67.7907 27.5682 68.143 27.6648 68.571 27.6648ZM74.7131 29V20.2727H76.7074V21.7273H76.7983C76.9574 21.2235 77.2301 20.8352 77.6165 20.5625C78.0066 20.286 78.4517 20.1477 78.9517 20.1477C79.0653 20.1477 79.1922 20.1534 79.3324 20.1648C79.4763 20.1723 79.5956 20.1856 79.6903 20.2045V22.0966C79.6032 22.0663 79.465 22.0398 79.2756 22.017C79.09 21.9905 78.91 21.9773 78.7358 21.9773C78.3608 21.9773 78.0237 22.0587 77.7244 22.2216C77.429 22.3807 77.196 22.6023 77.0256 22.8864C76.8551 23.1705 76.7699 23.4981 76.7699 23.8693V29H74.7131ZM85.8835 20.2727V21.8636H80.8665V20.2727H85.8835ZM82.1051 18.1818H84.1619V26.375C84.1619 26.6515 84.2036 26.8636 84.2869 27.0114C84.3741 27.1553 84.4877 27.2538 84.6278 27.3068C84.768 27.3598 84.9233 27.3864 85.0938 27.3864C85.2225 27.3864 85.34 27.3769 85.446 27.358C85.5559 27.339 85.6392 27.322 85.696 27.3068L86.0426 28.9148C85.9328 28.9527 85.7756 28.9943 85.571 29.0398C85.3703 29.0852 85.1241 29.1117 84.8324 29.1193C84.3172 29.1345 83.8532 29.0568 83.4403 28.8864C83.0275 28.7121 82.6998 28.4432 82.4574 28.0795C82.2188 27.7159 82.1013 27.2614 82.1051 26.7159V18.1818ZM101.624 21.2898H99.4986C99.438 20.9413 99.3262 20.6326 99.1634 20.3636C99.0005 20.0909 98.7978 19.8598 98.5554 19.6705C98.313 19.4811 98.0365 19.339 97.7259 19.2443C97.419 19.1458 97.0876 19.0966 96.7315 19.0966C96.099 19.0966 95.5384 19.2557 95.0497 19.5739C94.5611 19.8883 94.1785 20.3504 93.902 20.9602C93.6255 21.5663 93.4872 22.3068 93.4872 23.1818C93.4872 24.072 93.6255 24.822 93.902 25.4318C94.1823 26.0379 94.5649 26.4962 95.0497 26.8068C95.5384 27.1136 96.0971 27.267 96.7259 27.267C97.0743 27.267 97.4001 27.2216 97.7031 27.1307C98.0099 27.036 98.2846 26.8977 98.527 26.7159C98.7732 26.5341 98.9796 26.3106 99.1463 26.0455C99.3168 25.7803 99.4342 25.4773 99.4986 25.1364L101.624 25.1477C101.544 25.7008 101.372 26.2197 101.107 26.7045C100.845 27.1894 100.502 27.6174 100.078 27.9886C99.6539 28.3561 99.1577 28.6439 98.5895 28.8523C98.0213 29.0568 97.3906 29.1591 96.6974 29.1591C95.6747 29.1591 94.7618 28.9223 93.9588 28.4489C93.1558 27.9754 92.5232 27.2917 92.0611 26.3977C91.599 25.5038 91.3679 24.4318 91.3679 23.1818C91.3679 21.928 91.6009 20.8561 92.0668 19.9659C92.5327 19.072 93.1671 18.3883 93.9702 17.9148C94.7732 17.4413 95.6823 17.2045 96.6974 17.2045C97.3452 17.2045 97.9474 17.2955 98.5043 17.4773C99.0611 17.6591 99.5573 17.9261 99.9929 18.2784C100.429 18.6269 100.786 19.0549 101.067 19.5625C101.351 20.0663 101.536 20.642 101.624 21.2898ZM105.52 23.8864V29H103.463V17.3636H105.474V21.7557H105.577C105.781 21.2633 106.098 20.875 106.526 20.5909C106.957 20.303 107.507 20.1591 108.173 20.1591C108.779 20.1591 109.308 20.286 109.759 20.5398C110.209 20.7936 110.558 21.1648 110.804 21.6534C111.054 22.142 111.179 22.7386 111.179 23.4432V29H109.122V23.7614C109.122 23.1742 108.971 22.7178 108.668 22.392C108.368 22.0625 107.948 21.8977 107.406 21.8977C107.043 21.8977 106.717 21.9773 106.429 22.1364C106.145 22.2917 105.921 22.517 105.759 22.8125C105.599 23.108 105.52 23.4659 105.52 23.8864ZM115.787 29.1761C115.234 29.1761 114.736 29.0777 114.293 28.8807C113.853 28.6799 113.505 28.3845 113.247 27.9943C112.993 27.6042 112.866 27.1231 112.866 26.5511C112.866 26.0587 112.957 25.6515 113.139 25.3295C113.321 25.0076 113.569 24.75 113.884 24.5568C114.198 24.3636 114.552 24.2178 114.946 24.1193C115.344 24.017 115.755 23.9432 116.179 23.8977C116.69 23.8447 117.105 23.7973 117.423 23.7557C117.741 23.7102 117.973 23.642 118.116 23.5511C118.264 23.4564 118.338 23.3106 118.338 23.1136V23.0795C118.338 22.6515 118.211 22.3201 117.957 22.0852C117.704 21.8504 117.338 21.733 116.861 21.733C116.357 21.733 115.957 21.8428 115.662 22.0625C115.37 22.2822 115.173 22.5417 115.071 22.8409L113.151 22.5682C113.302 22.0379 113.552 21.5947 113.901 21.2386C114.249 20.8788 114.675 20.6098 115.179 20.4318C115.683 20.25 116.24 20.1591 116.849 20.1591C117.27 20.1591 117.688 20.2083 118.105 20.3068C118.522 20.4053 118.902 20.5682 119.247 20.7955C119.592 21.0189 119.868 21.3239 120.077 21.7102C120.289 22.0966 120.395 22.5795 120.395 23.1591V29H118.418V27.8011H118.349C118.224 28.0436 118.048 28.2708 117.821 28.483C117.598 28.6913 117.315 28.8598 116.974 28.9886C116.637 29.1136 116.241 29.1761 115.787 29.1761ZM116.321 27.6648C116.734 27.6648 117.092 27.5833 117.395 27.4205C117.698 27.2538 117.931 27.0341 118.094 26.7614C118.26 26.4886 118.344 26.1913 118.344 25.8693V24.8409C118.279 24.8939 118.17 24.9432 118.014 24.9886C117.863 25.0341 117.692 25.0739 117.503 25.108C117.313 25.142 117.126 25.1723 116.94 25.1989C116.755 25.2254 116.594 25.2481 116.457 25.267C116.151 25.3087 115.876 25.3769 115.634 25.4716C115.391 25.5663 115.2 25.6989 115.06 25.8693C114.92 26.036 114.849 26.2519 114.849 26.517C114.849 26.8958 114.988 27.1818 115.264 27.375C115.541 27.5682 115.893 27.6648 116.321 27.6648ZM126.821 20.2727V21.8636H121.804V20.2727H126.821ZM123.043 18.1818H125.099V26.375C125.099 26.6515 125.141 26.8636 125.224 27.0114C125.312 27.1553 125.425 27.2538 125.565 27.3068C125.705 27.3598 125.861 27.3864 126.031 27.3864C126.16 27.3864 126.277 27.3769 126.384 27.358C126.493 27.339 126.577 27.322 126.634 27.3068L126.98 28.9148C126.87 28.9527 126.713 28.9943 126.509 29.0398C126.308 29.0852 126.062 29.1117 125.77 29.1193C125.255 29.1345 124.791 29.0568 124.378 28.8864C123.965 28.7121 123.637 28.4432 123.395 28.0795C123.156 27.7159 123.039 27.2614 123.043 26.7159V18.1818Z" fill="#47C657"/>
</g>
<defs>
<filter id="filter0_b_418_2204" x="-23.5" y="-24" width="191" height="94" filterUnits="userSpaceOnUse" color-interpolation-filters="sRGB">
<feFlood flood-opacity="0" result="BackgroundImageFix"/>
<feGaussianBlur in="BackgroundImageFix" stdDeviation="12"/>
<feComposite in2="SourceAlpha" operator="in" result="effect1_backgroundBlur_418_2204"/>
<feBlend mode="normal" in="SourceGraphic" in2="effect1_backgroundBlur_418_2204" result="shape"/>
</filter>
<linearGradient id="paint0_linear_418_2204" x1="35.875" y1="16.25" x2="19" y2="32" gradientUnits="userSpaceOnUse">
<stop stop-color="#5BD066"/>
<stop offset="1" stop-color="#27B43E"/>
</linearGradient>
</defs>
</svg>
