<svg width="466" height="46" viewBox="0 0 466 46" fill="none" xmlns="http://www.w3.org/2000/svg">
<g filter="url(#filter0_b_418_2201)">
<rect width="466" height="46" rx="23" fill="url(#paint0_angular_418_2201)"/>
<rect x="0.5" y="0.5" width="465" height="45" rx="22.5" stroke="url(#paint1_linear_418_2201)" stroke-opacity="0.2"/>
<path d="M212.972 20.5625C212.919 20.0663 212.695 19.6799 212.301 19.4034C211.911 19.1269 211.403 18.9886 210.778 18.9886C210.339 18.9886 209.962 19.0549 209.648 19.1875C209.333 19.3201 209.093 19.5 208.926 19.7273C208.759 19.9545 208.674 20.214 208.67 20.5057C208.67 20.7481 208.725 20.9583 208.835 21.1364C208.949 21.3144 209.102 21.4659 209.295 21.5909C209.489 21.7121 209.703 21.8144 209.938 21.8977C210.172 21.9811 210.409 22.0511 210.648 22.108L211.739 22.3807C212.178 22.483 212.6 22.6212 213.006 22.7955C213.415 22.9697 213.78 23.1894 214.102 23.4545C214.428 23.7197 214.686 24.0398 214.875 24.4148C215.064 24.7898 215.159 25.2292 215.159 25.733C215.159 26.4148 214.985 27.0152 214.636 27.5341C214.288 28.0492 213.784 28.4527 213.125 28.7443C212.47 29.0322 211.676 29.1761 210.744 29.1761C209.839 29.1761 209.053 29.036 208.386 28.7557C207.723 28.4754 207.205 28.0663 206.83 27.5284C206.458 26.9905 206.258 26.3352 206.227 25.5625H208.301C208.331 25.9678 208.456 26.3049 208.676 26.5739C208.896 26.8428 209.182 27.0436 209.534 27.1761C209.89 27.3087 210.288 27.375 210.727 27.375C211.186 27.375 211.587 27.3068 211.932 27.1705C212.28 27.0303 212.553 26.8371 212.75 26.5909C212.947 26.3409 213.047 26.0492 213.051 25.7159C213.047 25.4129 212.958 25.1629 212.784 24.9659C212.61 24.7652 212.366 24.5985 212.051 24.4659C211.741 24.3295 211.377 24.2083 210.96 24.1023L209.636 23.7614C208.678 23.5152 207.92 23.142 207.364 22.642C206.811 22.1383 206.534 21.4697 206.534 20.6364C206.534 19.9508 206.72 19.3504 207.091 18.8352C207.466 18.3201 207.975 17.9205 208.619 17.6364C209.263 17.3485 209.992 17.2045 210.807 17.2045C211.633 17.2045 212.356 17.3485 212.977 17.6364C213.602 17.9205 214.093 18.3163 214.449 18.8239C214.805 19.3277 214.989 19.9072 215 20.5625H212.972ZM222.51 25.3295V20.2727H224.567V29H222.572V27.4489H222.482C222.285 27.9375 221.961 28.3371 221.51 28.6477C221.063 28.9583 220.512 29.1136 219.857 29.1136C219.285 29.1136 218.779 28.9867 218.339 28.733C217.904 28.4754 217.563 28.1023 217.317 27.6136C217.071 27.1212 216.947 26.5265 216.947 25.8295V20.2727H219.004V25.5114C219.004 26.0644 219.156 26.5038 219.459 26.8295C219.762 27.1553 220.16 27.3182 220.652 27.3182C220.955 27.3182 221.249 27.2443 221.533 27.0966C221.817 26.9489 222.05 26.7292 222.232 26.4375C222.417 26.142 222.51 25.7727 222.51 25.3295ZM226.773 29V17.3636H228.83V21.7159H228.915C229.021 21.5038 229.17 21.2784 229.364 21.0398C229.557 20.7973 229.818 20.5909 230.148 20.4205C230.477 20.2462 230.898 20.1591 231.409 20.1591C232.083 20.1591 232.691 20.3314 233.233 20.6761C233.778 21.017 234.21 21.5227 234.528 22.1932C234.85 22.8598 235.011 23.678 235.011 24.6477C235.011 25.6061 234.854 26.4205 234.54 27.0909C234.225 27.7614 233.797 28.2727 233.256 28.625C232.714 28.9773 232.1 29.1534 231.415 29.1534C230.915 29.1534 230.5 29.0701 230.17 28.9034C229.841 28.7367 229.576 28.536 229.375 28.3011C229.178 28.0625 229.025 27.8371 228.915 27.625H228.795V29H226.773ZM228.79 24.6364C228.79 25.2008 228.869 25.6951 229.028 26.1193C229.191 26.5436 229.424 26.875 229.727 27.1136C230.034 27.3485 230.405 27.4659 230.841 27.4659C231.295 27.4659 231.676 27.3447 231.983 27.1023C232.29 26.8561 232.521 26.5208 232.676 26.0966C232.835 25.6686 232.915 25.1818 232.915 24.6364C232.915 24.0947 232.837 23.6136 232.682 23.1932C232.527 22.7727 232.295 22.4432 231.989 22.2045C231.682 21.9659 231.299 21.8466 230.841 21.8466C230.402 21.8466 230.028 21.9621 229.722 22.1932C229.415 22.4242 229.182 22.7481 229.023 23.1648C228.867 23.5814 228.79 24.072 228.79 24.6364ZM236.76 29V20.2727H238.726V21.7557H238.828C239.01 21.2557 239.311 20.8655 239.732 20.5852C240.152 20.3011 240.654 20.1591 241.237 20.1591C241.828 20.1591 242.326 20.303 242.732 20.5909C243.141 20.875 243.429 21.2633 243.595 21.7557H243.686C243.879 21.2708 244.205 20.8845 244.663 20.5966C245.125 20.3049 245.673 20.1591 246.305 20.1591C247.108 20.1591 247.764 20.4129 248.271 20.9205C248.779 21.428 249.033 22.1686 249.033 23.142V29H246.97V23.4602C246.97 22.9186 246.826 22.5227 246.538 22.2727C246.25 22.0189 245.898 21.892 245.482 21.892C244.985 21.892 244.597 22.0473 244.317 22.358C244.04 22.6648 243.902 23.0644 243.902 23.5568V29H241.885V23.375C241.885 22.9242 241.749 22.5644 241.476 22.2955C241.207 22.0265 240.855 21.892 240.419 21.892C240.124 21.892 239.855 21.9678 239.612 22.1193C239.37 22.267 239.177 22.4773 239.033 22.75C238.889 23.0189 238.817 23.3333 238.817 23.6932V29H236.76ZM251.119 29V20.2727H253.176V29H251.119ZM252.153 19.0341C251.828 19.0341 251.547 18.9261 251.312 18.7102C251.078 18.4905 250.96 18.2273 250.96 17.9205C250.96 17.6098 251.078 17.3466 251.312 17.1307C251.547 16.911 251.828 16.8011 252.153 16.8011C252.483 16.8011 252.763 16.911 252.994 17.1307C253.229 17.3466 253.347 17.6098 253.347 17.9205C253.347 18.2273 253.229 18.4905 252.994 18.7102C252.763 18.9261 252.483 19.0341 252.153 19.0341ZM259.649 20.2727V21.8636H254.632V20.2727H259.649ZM255.871 18.1818H257.928V26.375C257.928 26.6515 257.969 26.8636 258.053 27.0114C258.14 27.1553 258.253 27.2538 258.393 27.3068C258.534 27.3598 258.689 27.3864 258.859 27.3864C258.988 27.3864 259.106 27.3769 259.212 27.358C259.321 27.339 259.405 27.322 259.462 27.3068L259.808 28.9148C259.698 28.9527 259.541 28.9943 259.337 29.0398C259.136 29.0852 258.89 29.1117 258.598 29.1193C258.083 29.1345 257.619 29.0568 257.206 28.8864C256.793 28.7121 256.465 28.4432 256.223 28.0795C255.984 27.7159 255.867 27.2614 255.871 26.7159V18.1818Z" fill="white"/>
</g>
<defs>
<filter id="filter0_b_418_2201" x="-80" y="-80" width="626" height="206" filterUnits="userSpaceOnUse" color-interpolation-filters="sRGB">
<feFlood flood-opacity="0" result="BackgroundImageFix"/>
<feGaussianBlur in="BackgroundImageFix" stdDeviation="40"/>
<feComposite in2="SourceAlpha" operator="in" result="effect1_backgroundBlur_418_2201"/>
<feBlend mode="normal" in="SourceGraphic" in2="effect1_backgroundBlur_418_2201" result="shape"/>
</filter>
<radialGradient id="paint0_angular_418_2201" cx="0" cy="0" r="1" gradientUnits="userSpaceOnUse" gradientTransform="translate(223.055 -51) rotate(84.1461) scale(97.5085 978.801)">
<stop offset="0.000750319" stop-color="#7001D3"/>
<stop offset="0.062593" stop-color="#F692F6"/>
<stop offset="0.354167" stop-color="#BD38FF"/>
<stop offset="0.546875" stop-color="#592BED"/>
<stop offset="0.92822" stop-color="#8EC2DF"/>
</radialGradient>
<linearGradient id="paint1_linear_418_2201" x1="0" y1="23" x2="466" y2="23" gradientUnits="userSpaceOnUse">
<stop stop-color="white"/>
<stop offset="1" stop-color="#E9E8E8"/>
</linearGradient>
</defs>
</svg>
