<svg width="123" height="46" viewBox="0 0 123 46" fill="none" xmlns="http://www.w3.org/2000/svg">
<g filter="url(#filter0_b_418_2210)">
<rect width="123" height="46" rx="8" fill="#F9F5FF" fill-opacity="0.5"/>
<rect x="0.5" y="0.5" width="122" height="45" rx="7.5" stroke="#D6BBFB"/>
<path d="M29.108 21.2898H26.983C26.9223 20.9413 26.8106 20.6326 26.6477 20.3636C26.4848 20.0909 26.2822 19.8598 26.0398 19.6705C25.7973 19.4811 25.5208 19.339 25.2102 19.2443C24.9034 19.1458 24.572 19.0966 24.2159 19.0966C23.5833 19.0966 23.0227 19.2557 22.5341 19.5739C22.0455 19.8883 21.6629 20.3504 21.3864 20.9602C21.1098 21.5663 20.9716 22.3068 20.9716 23.1818C20.9716 24.072 21.1098 24.822 21.3864 25.4318C21.6667 26.0379 22.0492 26.4962 22.5341 26.8068C23.0227 27.1136 23.5814 27.267 24.2102 27.267C24.5587 27.267 24.8845 27.2216 25.1875 27.1307C25.4943 27.036 25.7689 26.8977 26.0114 26.7159C26.2576 26.5341 26.464 26.3106 26.6307 26.0455C26.8011 25.7803 26.9186 25.4773 26.983 25.1364L29.108 25.1477C29.0284 25.7008 28.8561 26.2197 28.5909 26.7045C28.3295 27.1894 27.9867 27.6174 27.5625 27.9886C27.1383 28.3561 26.642 28.6439 26.0739 28.8523C25.5057 29.0568 24.875 29.1591 24.1818 29.1591C23.1591 29.1591 22.2462 28.9223 21.4432 28.4489C20.6402 27.9754 20.0076 27.2917 19.5455 26.3977C19.0833 25.5038 18.8523 24.4318 18.8523 23.1818C18.8523 21.928 19.0852 20.8561 19.5511 19.9659C20.017 19.072 20.6515 18.3883 21.4545 17.9148C22.2576 17.4413 23.1667 17.2045 24.1818 17.2045C24.8295 17.2045 25.4318 17.2955 25.9886 17.4773C26.5455 17.6591 27.0417 17.9261 27.4773 18.2784C27.9129 18.6269 28.2708 19.0549 28.5511 19.5625C28.8352 20.0663 29.0208 20.642 29.108 21.2898ZM34.7543 29.1705C33.902 29.1705 33.1634 28.983 32.5384 28.608C31.9134 28.233 31.4285 27.7083 31.0838 27.0341C30.7429 26.3598 30.5724 25.572 30.5724 24.6705C30.5724 23.7689 30.7429 22.9792 31.0838 22.3011C31.4285 21.6231 31.9134 21.0966 32.5384 20.7216C33.1634 20.3466 33.902 20.1591 34.7543 20.1591C35.6065 20.1591 36.3452 20.3466 36.9702 20.7216C37.5952 21.0966 38.0781 21.6231 38.419 22.3011C38.7637 22.9792 38.9361 23.7689 38.9361 24.6705C38.9361 25.572 38.7637 26.3598 38.419 27.0341C38.0781 27.7083 37.5952 28.233 36.9702 28.608C36.3452 28.983 35.6065 29.1705 34.7543 29.1705ZM34.7656 27.5227C35.2277 27.5227 35.6141 27.3958 35.9247 27.142C36.2353 26.8845 36.4664 26.5398 36.6179 26.108C36.7732 25.6761 36.8509 25.1951 36.8509 24.6648C36.8509 24.1307 36.7732 23.6477 36.6179 23.2159C36.4664 22.7803 36.2353 22.4337 35.9247 22.1761C35.6141 21.9186 35.2277 21.7898 34.7656 21.7898C34.2921 21.7898 33.8982 21.9186 33.5838 22.1761C33.2732 22.4337 33.0402 22.7803 32.8849 23.2159C32.7334 23.6477 32.6577 24.1307 32.6577 24.6648C32.6577 25.1951 32.7334 25.6761 32.8849 26.108C33.0402 26.5398 33.2732 26.8845 33.5838 27.142C33.8982 27.3958 34.2921 27.5227 34.7656 27.5227ZM42.7386 23.8864V29H40.6818V20.2727H42.6477V21.7557H42.75C42.9508 21.267 43.2708 20.8788 43.7102 20.5909C44.1534 20.303 44.7008 20.1591 45.3523 20.1591C45.9545 20.1591 46.4792 20.2879 46.9261 20.5455C47.3769 20.803 47.7254 21.1761 47.9716 21.6648C48.2216 22.1534 48.3447 22.7462 48.3409 23.4432V29H46.2841V23.7614C46.2841 23.178 46.1326 22.7216 45.8295 22.392C45.5303 22.0625 45.1155 21.8977 44.5852 21.8977C44.2254 21.8977 43.9053 21.9773 43.625 22.1364C43.3485 22.2917 43.1307 22.517 42.9716 22.8125C42.8163 23.108 42.7386 23.4659 42.7386 23.8864ZM54.7898 20.2727V21.8636H49.7727V20.2727H54.7898ZM51.0114 18.1818H53.0682V26.375C53.0682 26.6515 53.1098 26.8636 53.1932 27.0114C53.2803 27.1553 53.3939 27.2538 53.5341 27.3068C53.6742 27.3598 53.8295 27.3864 54 27.3864C54.1288 27.3864 54.2462 27.3769 54.3523 27.358C54.4621 27.339 54.5455 27.322 54.6023 27.3068L54.9489 28.9148C54.839 28.9527 54.6818 28.9943 54.4773 29.0398C54.2765 29.0852 54.0303 29.1117 53.7386 29.1193C53.2235 29.1345 52.7595 29.0568 52.3466 28.8864C51.9337 28.7121 51.6061 28.4432 51.3636 28.0795C51.125 27.7159 51.0076 27.2614 51.0114 26.7159V18.1818ZM59.0213 29.1761C58.4683 29.1761 57.9702 29.0777 57.527 28.8807C57.0876 28.6799 56.7391 28.3845 56.4815 27.9943C56.2277 27.6042 56.1009 27.1231 56.1009 26.5511C56.1009 26.0587 56.1918 25.6515 56.3736 25.3295C56.5554 25.0076 56.8035 24.75 57.1179 24.5568C57.4323 24.3636 57.7865 24.2178 58.1804 24.1193C58.5781 24.017 58.9891 23.9432 59.4134 23.8977C59.9247 23.8447 60.3395 23.7973 60.6577 23.7557C60.9759 23.7102 61.2069 23.642 61.3509 23.5511C61.4986 23.4564 61.5724 23.3106 61.5724 23.1136V23.0795C61.5724 22.6515 61.4455 22.3201 61.1918 22.0852C60.938 21.8504 60.5724 21.733 60.0952 21.733C59.5914 21.733 59.1918 21.8428 58.8963 22.0625C58.6046 22.2822 58.4077 22.5417 58.3054 22.8409L56.3849 22.5682C56.5365 22.0379 56.7865 21.5947 57.1349 21.2386C57.4834 20.8788 57.9096 20.6098 58.4134 20.4318C58.9171 20.25 59.474 20.1591 60.0838 20.1591C60.5043 20.1591 60.9228 20.2083 61.3395 20.3068C61.7562 20.4053 62.1368 20.5682 62.4815 20.7955C62.8262 21.0189 63.1027 21.3239 63.3111 21.7102C63.5232 22.0966 63.6293 22.5795 63.6293 23.1591V29H61.652V27.8011H61.5838C61.4588 28.0436 61.2827 28.2708 61.0554 28.483C60.8319 28.6913 60.5497 28.8598 60.2088 28.9886C59.8717 29.1136 59.4759 29.1761 59.0213 29.1761ZM59.5554 27.6648C59.9683 27.6648 60.3262 27.5833 60.6293 27.4205C60.9323 27.2538 61.1652 27.0341 61.3281 26.7614C61.4948 26.4886 61.5781 26.1913 61.5781 25.8693V24.8409C61.5137 24.8939 61.4039 24.9432 61.2486 24.9886C61.0971 25.0341 60.9266 25.0739 60.7372 25.108C60.5478 25.142 60.3603 25.1723 60.1747 25.1989C59.9891 25.2254 59.8281 25.2481 59.6918 25.267C59.3849 25.3087 59.1103 25.3769 58.8679 25.4716C58.6255 25.5663 58.4342 25.6989 58.294 25.8693C58.1539 26.036 58.0838 26.2519 58.0838 26.517C58.0838 26.8958 58.2221 27.1818 58.4986 27.375C58.7751 27.5682 59.1274 27.6648 59.5554 27.6648ZM69.5043 29.1705C68.633 29.1705 67.8849 28.9792 67.2599 28.5966C66.6387 28.214 66.1596 27.6856 65.8224 27.0114C65.4891 26.3333 65.3224 25.553 65.3224 24.6705C65.3224 23.7841 65.4929 23.0019 65.8338 22.3239C66.1747 21.642 66.6558 21.1117 67.277 20.733C67.902 20.3504 68.6406 20.1591 69.4929 20.1591C70.2012 20.1591 70.8281 20.2898 71.3736 20.5511C71.9228 20.8087 72.3603 21.1742 72.6861 21.6477C73.0118 22.1174 73.1974 22.6667 73.2429 23.2955H71.277C71.1974 22.875 71.008 22.5246 70.7088 22.2443C70.4134 21.9602 70.0175 21.8182 69.5213 21.8182C69.1009 21.8182 68.7315 21.9318 68.4134 22.1591C68.0952 22.3826 67.8471 22.7045 67.669 23.125C67.4948 23.5455 67.4077 24.0492 67.4077 24.6364C67.4077 25.2311 67.4948 25.7424 67.669 26.1705C67.8433 26.5947 68.0876 26.9223 68.402 27.1534C68.7202 27.3807 69.0933 27.4943 69.5213 27.4943C69.8243 27.4943 70.0952 27.4375 70.3338 27.3239C70.5762 27.2064 70.7789 27.0379 70.9418 26.8182C71.1046 26.5985 71.2164 26.3314 71.277 26.017H73.2429C73.1937 26.6345 73.0118 27.1818 72.6974 27.6591C72.383 28.1326 71.955 28.5038 71.4134 28.7727C70.8717 29.0379 70.2353 29.1705 69.5043 29.1705ZM79.2898 20.2727V21.8636H74.2727V20.2727H79.2898ZM75.5114 18.1818H77.5682V26.375C77.5682 26.6515 77.6098 26.8636 77.6932 27.0114C77.7803 27.1553 77.8939 27.2538 78.0341 27.3068C78.1742 27.3598 78.3295 27.3864 78.5 27.3864C78.6288 27.3864 78.7462 27.3769 78.8523 27.358C78.9621 27.339 79.0455 27.322 79.1023 27.3068L79.4489 28.9148C79.339 28.9527 79.1818 28.9943 78.9773 29.0398C78.7765 29.0852 78.5303 29.1117 78.2386 29.1193C77.7235 29.1345 77.2595 29.0568 76.8466 28.8864C76.4337 28.7121 76.1061 28.4432 75.8636 28.0795C75.625 27.7159 75.5076 27.2614 75.5114 26.7159V18.1818ZM92.4048 17.3636H94.5128V24.9659C94.5128 25.7992 94.3158 26.5322 93.9219 27.1648C93.5317 27.7973 92.9825 28.2917 92.2741 28.6477C91.5658 29 90.7382 29.1761 89.7912 29.1761C88.8404 29.1761 88.0109 29 87.3026 28.6477C86.5942 28.2917 86.045 27.7973 85.6548 27.1648C85.2647 26.5322 85.0696 25.7992 85.0696 24.9659V17.3636H87.1776V24.7898C87.1776 25.2746 87.2836 25.7064 87.4957 26.0852C87.7116 26.464 88.0147 26.7614 88.4048 26.9773C88.795 27.1894 89.2571 27.2955 89.7912 27.2955C90.3253 27.2955 90.7874 27.1894 91.1776 26.9773C91.5715 26.7614 91.8745 26.464 92.0866 26.0852C92.2988 25.7064 92.4048 25.2746 92.4048 24.7898V17.3636ZM103.611 22.5795L101.736 22.7841C101.683 22.5947 101.59 22.4167 101.457 22.25C101.329 22.0833 101.154 21.9489 100.935 21.8466C100.715 21.7443 100.446 21.6932 100.128 21.6932C99.6998 21.6932 99.34 21.786 99.0483 21.9716C98.7604 22.1572 98.6184 22.3977 98.6222 22.6932C98.6184 22.947 98.7112 23.1534 98.9006 23.3125C99.0938 23.4716 99.4119 23.6023 99.8551 23.7045L101.344 24.0227C102.17 24.2008 102.783 24.483 103.185 24.8693C103.59 25.2557 103.795 25.7614 103.798 26.3864C103.795 26.9356 103.634 27.4205 103.315 27.8409C103.001 28.2576 102.563 28.5833 102.003 28.8182C101.442 29.053 100.798 29.1705 100.071 29.1705C99.0028 29.1705 98.143 28.947 97.4915 28.5C96.84 28.0492 96.4517 27.4223 96.3267 26.6193L98.3324 26.4261C98.4233 26.8201 98.6165 27.1174 98.9119 27.3182C99.2074 27.5189 99.5919 27.6193 100.065 27.6193C100.554 27.6193 100.946 27.5189 101.241 27.3182C101.541 27.1174 101.69 26.8693 101.69 26.5739C101.69 26.3239 101.594 26.1174 101.401 25.9545C101.211 25.7917 100.916 25.6667 100.514 25.5795L99.0256 25.267C98.1884 25.0928 97.5691 24.7992 97.1676 24.3864C96.7661 23.9697 96.5672 23.4432 96.571 22.8068C96.5672 22.2689 96.7131 21.803 97.0085 21.4091C97.3078 21.0114 97.7225 20.7045 98.2528 20.4886C98.7869 20.2689 99.4025 20.1591 100.099 20.1591C101.122 20.1591 101.927 20.3769 102.514 20.8125C103.105 21.2481 103.471 21.8371 103.611 22.5795Z" fill="#592BEC"/>
</g>
<defs>
<filter id="filter0_b_418_2210" x="-40" y="-40" width="203" height="126" filterUnits="userSpaceOnUse" color-interpolation-filters="sRGB">
<feFlood flood-opacity="0" result="BackgroundImageFix"/>
<feGaussianBlur in="BackgroundImageFix" stdDeviation="20"/>
<feComposite in2="SourceAlpha" operator="in" result="effect1_backgroundBlur_418_2210"/>
<feBlend mode="normal" in="SourceGraphic" in2="effect1_backgroundBlur_418_2210" result="shape"/>
</filter>
</defs>
</svg>
