<svg width="26" height="22" viewBox="0 0 26 22" fill="none" xmlns="http://www.w3.org/2000/svg">
<g id="Layer_1">
<g id="Group">
<path id="Vector" d="M24.3224 7.50025H22.6448C20.7925 7.50025 19.2903 5.93303 19.2903 3.99975V2.25025C19.2903 1.28324 18.5396 0.5 17.6127 0.5H14.2582C13.332 0.5 12.5806 1.28324 12.5806 2.25025V3.99975H12.5778C12.5778 5.93229 11.077 7.49876 9.2261 7.50025H9.22326C7.41355 7.50025 5.93908 6.00565 5.8709 4.13536C5.86877 4.09016 5.86806 4.04495 5.86806 3.99975C5.86806 3.95455 5.86806 3.90935 5.8709 3.86489V2.25025H5.86522C5.86522 1.28324 5.11449 0.5 4.18832 0.5H1.6776C1.3722 0.5 1.08526 0.585215 0.838801 0.734898C0.337367 1.03649 0 1.60261 0 2.25025V5.75074C0 6.39838 0.337367 6.96302 0.838801 7.26535C1.08526 7.41503 1.3722 7.50025 1.6776 7.50025H2.5164C4.3666 7.50321 5.86522 9.06969 5.86522 11H5.8709V19.7505C5.8709 20.7168 6.62234 21.5 7.5485 21.5H10.903C11.8299 21.5 12.5806 20.7168 12.5806 19.7505V11C12.5806 9.06747 14.0828 7.50025 15.9358 7.50025C17.7888 7.50025 19.2903 9.06747 19.2903 11V19.7505C19.2903 20.7168 20.041 21.5 20.9679 21.5H24.3224C25.2486 21.5 26 20.7168 26 19.7505V9.25049C26 8.28349 25.2486 7.50025 24.3224 7.50025Z" fill="#F3F3F3"/>
<path id="Vector_2" d="M21.6845 6.05826C22.3351 6.05826 22.7009 5.67812 22.8337 5.04679H22.8536V5.97675H23.4317V2.806H22.8536V3.75004H22.8401C22.7137 3.11203 22.355 2.71782 21.6774 2.72523C20.8741 2.71856 20.4025 3.35656 20.4025 4.40212C20.4025 5.44767 20.8407 6.059 21.6845 6.059V6.05826ZM21.8969 3.25431C22.4814 3.25431 22.8536 3.69594 22.8536 4.3747V4.42213C22.8536 5.1283 22.4814 5.5151 21.8969 5.5151C21.2726 5.5151 20.98 5.11422 20.98 4.40138C20.98 3.68853 21.2854 3.25431 21.8969 3.25431Z" fill="#F3F3F3"/>
<path id="Vector_3" d="M24.6065 2.806H24.0355V5.97675H24.6065V2.806Z" fill="#F3F3F3"/>
<path id="Vector_4" d="M24.6534 1.81528H23.9957V2.31768H24.6534V1.81528Z" fill="#F3F3F3"/>
</g>
</g>
</svg>
