<svg width="21" height="20" viewBox="0 0 21 20" fill="none" xmlns="http://www.w3.org/2000/svg">
<g clip-path="url(#clip0_418_2181)">
<path d="M10.8628 1.80078C13.5347 1.80078 13.8511 1.8125 14.9019 1.85937C15.8784 1.90234 16.4058 2.06641 16.7573 2.20313C17.2222 2.38281 17.5581 2.60156 17.9058 2.94922C18.2573 3.30078 18.4722 3.63281 18.6519 4.09766C18.7886 4.44922 18.9526 4.98047 18.9956 5.95312C19.0425 7.00781 19.0542 7.32422 19.0542 9.99219C19.0542 12.6641 19.0425 12.9805 18.9956 14.0313C18.9526 15.0078 18.7886 15.5352 18.6519 15.8867C18.4722 16.3516 18.2534 16.6875 17.9058 17.0352C17.5542 17.3867 17.2222 17.6016 16.7573 17.7813C16.4058 17.918 15.8745 18.082 14.9019 18.125C13.8472 18.1719 13.5308 18.1836 10.8628 18.1836C8.19092 18.1836 7.87451 18.1719 6.82373 18.125C5.84717 18.082 5.31982 17.918 4.96826 17.7813C4.50342 17.6016 4.16748 17.3828 3.81982 17.0352C3.46826 16.6836 3.25342 16.3516 3.07373 15.8867C2.93701 15.5352 2.77295 15.0039 2.72998 14.0313C2.68311 12.9766 2.67139 12.6602 2.67139 9.99219C2.67139 7.32031 2.68311 7.00391 2.72998 5.95312C2.77295 4.97656 2.93701 4.44922 3.07373 4.09766C3.25342 3.63281 3.47217 3.29688 3.81982 2.94922C4.17139 2.59766 4.50342 2.38281 4.96826 2.20313C5.31982 2.06641 5.85108 1.90234 6.82373 1.85937C7.87451 1.8125 8.19092 1.80078 10.8628 1.80078ZM10.8628 0C8.14795 0 7.80811 0.0117187 6.7417 0.0585938C5.6792 0.105469 4.94873 0.277344 4.31592 0.523438C3.65576 0.78125 3.09717 1.12109 2.54248 1.67969C1.98389 2.23438 1.64404 2.79297 1.38623 3.44922C1.14014 4.08594 0.968262 4.8125 0.921387 5.875C0.874512 6.94531 0.862793 7.28516 0.862793 10C0.862793 12.7148 0.874512 13.0547 0.921387 14.1211C0.968262 15.1836 1.14014 15.9141 1.38623 16.5469C1.64404 17.207 1.98389 17.7656 2.54248 18.3203C3.09717 18.875 3.65576 19.2188 4.31201 19.4727C4.94873 19.7188 5.67529 19.8906 6.73779 19.9375C7.8042 19.9844 8.14404 19.9961 10.8589 19.9961C13.5737 19.9961 13.9136 19.9844 14.98 19.9375C16.0425 19.8906 16.773 19.7188 17.4058 19.4727C18.062 19.2188 18.6206 18.875 19.1753 18.3203C19.73 17.7656 20.0737 17.207 20.3276 16.5508C20.5737 15.9141 20.7456 15.1875 20.7925 14.125C20.8394 13.0586 20.8511 12.7188 20.8511 10.0039C20.8511 7.28906 20.8394 6.94922 20.7925 5.88281C20.7456 4.82031 20.5737 4.08984 20.3276 3.45703C20.0815 2.79297 19.7417 2.23438 19.1831 1.67969C18.6284 1.125 18.0698 0.78125 17.4136 0.527344C16.7769 0.28125 16.0503 0.109375 14.9878 0.0625C13.9175 0.0117188 13.5776 0 10.8628 0Z" fill="#98A2B3"/>
<path d="M10.8628 4.86328C8.02686 4.86328 5.72607 7.16406 5.72607 10C5.72607 12.8359 8.02686 15.1367 10.8628 15.1367C13.6987 15.1367 15.9995 12.8359 15.9995 10C15.9995 7.16406 13.6987 4.86328 10.8628 4.86328ZM10.8628 13.332C9.02295 13.332 7.53076 11.8398 7.53076 10C7.53076 8.16016 9.02295 6.66797 10.8628 6.66797C12.7026 6.66797 14.1948 8.16016 14.1948 10C14.1948 11.8398 12.7026 13.332 10.8628 13.332Z" fill="#98A2B3"/>
<path d="M17.4019 4.66013C17.4019 5.32419 16.8628 5.85935 16.2026 5.85935C15.5386 5.85935 15.0034 5.32028 15.0034 4.66013C15.0034 3.99606 15.5425 3.46091 16.2026 3.46091C16.8628 3.46091 17.4019 3.99997 17.4019 4.66013Z" fill="#98A2B3"/>
</g>
<defs>
<clipPath id="clip0_418_2181">
<rect width="20" height="20" fill="white" transform="translate(0.862793)"/>
</clipPath>
</defs>
</svg>
