<svg width="21" height="20" viewBox="0 0 21 20" fill="none" xmlns="http://www.w3.org/2000/svg">
<g clip-path="url(#clip0_418_2182)">
<path d="M20.8628 10C20.8628 4.47715 16.3856 0 10.8628 0C5.33994 0 0.862793 4.47715 0.862793 10C0.862793 14.9912 4.51963 19.1283 9.30029 19.8785V12.8906H6.76123V10H9.30029V7.79688C9.30029 5.29063 10.7933 3.90625 13.0774 3.90625C14.1712 3.90625 15.3159 4.10156 15.3159 4.10156V6.5625H14.055C12.8128 6.5625 12.4253 7.3334 12.4253 8.125V10H15.1987L14.7554 12.8906H12.4253V19.8785C17.206 19.1283 20.8628 14.9912 20.8628 10Z" fill="#98A2B3"/>
</g>
<defs>
<clipPath id="clip0_418_2182">
<rect width="20" height="20" fill="white" transform="translate(0.862793)"/>
</clipPath>
</defs>
</svg>
