<svg width="21" height="20" viewBox="0 0 21 20" fill="none" xmlns="http://www.w3.org/2000/svg">
<g clip-path="url(#clip0_418_2180)">
<path d="M19.3823 0H2.33936C1.52295 0 0.862793 0.644531 0.862793 1.44141V18.5547C0.862793 19.3516 1.52295 20 2.33936 20H19.3823C20.1987 20 20.8628 19.3516 20.8628 18.5586V1.44141C20.8628 0.644531 20.1987 0 19.3823 0ZM6.79639 17.043H3.82764V7.49609H6.79639V17.043ZM5.31201 6.19531C4.35889 6.19531 3.58936 5.42578 3.58936 4.47656C3.58936 3.52734 4.35889 2.75781 5.31201 2.75781C6.26123 2.75781 7.03076 3.52734 7.03076 4.47656C7.03076 5.42188 6.26123 6.19531 5.31201 6.19531ZM17.9058 17.043H14.9409V12.4023C14.9409 11.2969 14.9214 9.87109 13.3979 9.87109C11.855 9.87109 11.6206 11.0781 11.6206 12.3242V17.043H8.65967V7.49609H11.5034V8.80078H11.5425C11.937 8.05078 12.9058 7.25781 14.3472 7.25781C17.3511 7.25781 17.9058 9.23438 17.9058 11.8047V17.043Z" fill="#98A2B3"/>
</g>
<defs>
<clipPath id="clip0_418_2180">
<rect width="20" height="20" fill="white" transform="translate(0.862793)"/>
</clipPath>
</defs>
</svg>
